<svg xmlns="http://www.w3.org/2000/svg" version="1.1" xmlns:xlink="http://www.w3.org/1999/xlink" xmlns:svgjs="http://svgjs.dev/svgjs" width="2000" height="303" viewBox="0 0 2000 303"><g transform="matrix(1,0,0,1,-1.2121212121212466,-0.41474821168017684)"><svg viewBox="0 0 396 60" data-background-color="#0b041a" preserveAspectRatio="xMidYMid meet" height="303" width="2000" xmlns="http://www.w3.org/2000/svg" xmlns:xlink="http://www.w3.org/1999/xlink"><g id="tight-bounds" transform="matrix(1,0,0,1,0.2400000000000091,0.08212835874854818)"><svg viewBox="0 0 395.52 59.835743282502875" height="59.835743282502875" width="395.52"><g><svg viewBox="0 0 480.657010284169 72.71558827442072" height="59.835743282502875" width="395.52"><g transform="matrix(1,0,0,1,0,10.049694182644256)"><svg viewBox="0 0 395.52 52.61619990913221" height="52.61619990913221" width="395.52"><g id="textblocktransform"><svg viewBox="0 0 395.52 52.61619990913221" height="52.61619990913221" width="395.52" id="textblock"><g><svg viewBox="0 0 395.52 52.61619990913221" height="52.61619990913221" width="395.52"><g transform="matrix(1,0,0,1,0,0)"><svg width="395.52" viewBox="4.52 -35.16 268.65000000000003 35.75" height="52.61619990913221" data-palette-color="#55279f"><path d="M4.52-35.11L15.5-35.11Q17.92-35.11 20.02-34.58 22.12-34.06 23.67-32.87 25.22-31.69 26.11-29.79 27-27.88 27-25.15L27-25.15Q27-22.09 25.98-20.17 24.95-18.24 23.21-17.11 21.46-15.99 19.15-15.58 16.85-15.16 14.28-15.16L14.28-15.16Q12.89-15.16 11.56-15.26 10.23-15.36 9.06-15.48L9.06-15.48 9.06 0 4.52 0 4.52-35.11ZM9.06-31.45L9.06-19.14Q10.23-18.99 11.51-18.91 12.79-18.82 14.09-18.82L14.09-18.82Q15.94-18.82 17.49-19.06 19.04-19.29 20.14-19.97 21.24-20.65 21.85-21.9 22.46-23.14 22.46-25.15L22.46-25.15Q22.46-26.98 21.95-28.19 21.44-29.39 20.52-30.13 19.6-30.86 18.32-31.15 17.04-31.45 15.5-31.45L15.5-31.45 9.06-31.45ZM34.03 0L34.03-35.16 38.23-35.16 38.23-19.85Q39.87-22.63 41.94-24.19L41.94-24.19Q44.31-25.95 46.65-25.95L46.65-25.95Q50.17-25.95 52.12-24.19L52.12-24.19Q53.81-22.68 54.44-19.63L54.44-19.63Q54.93-17.31 54.93-13.38L54.93-13.38 54.93 0 50.73 0 50.73-14.55Q50.73-16.04 50.66-17 50.58-17.97 50.3-19.03 50.02-20.09 49.5-20.69 48.97-21.29 48.03-21.68 47.09-22.07 45.75-22.07L45.75-22.07Q43.43-22.07 41.28-19.87L41.28-19.87Q39.91-18.48 38.23-15.63L38.23-15.63 38.23 0 34.03 0ZM71.6-25.95L71.6-25.95Q72.8-25.95 74.09-25.77 75.39-25.59 76.63-25.07L76.63-25.07Q77.88-24.54 78.99-23.62 80.1-22.71 80.95-21.24L80.95-21.24Q81.81-19.75 82.29-17.66 82.78-15.58 82.78-12.7L82.78-12.7Q82.78-9.81 82.29-7.73 81.81-5.64 80.95-4.17L80.95-4.17Q80.1-2.69 78.99-1.76 77.88-0.83 76.63-0.32L76.63-0.32Q75.39 0.22 74.09 0.4 72.8 0.59 71.6 0.59L71.6 0.59Q70.43 0.59 69.15 0.4 67.87 0.22 66.62-0.32L66.62-0.32Q65.38-0.83 64.28-1.76 63.18-2.69 62.32-4.17L62.32-4.17Q61.47-5.64 60.98-7.73 60.49-9.81 60.49-12.7L60.49-12.7Q60.49-15.58 60.98-17.66 61.47-19.75 62.32-21.24L62.32-21.24Q63.18-22.71 64.28-23.62 65.38-24.54 66.62-25.07L66.62-25.07Q67.87-25.59 69.14-25.77 70.41-25.95 71.6-25.95ZM71.6-22.51L71.6-22.51Q70.21-22.51 68.98-22.07 67.74-21.63 66.82-20.53L66.82-20.53Q65.86-19.41 65.3-17.53 64.74-15.65 64.74-12.7L64.74-12.7Q64.74-9.77 65.3-7.87 65.86-5.98 66.82-4.88L66.82-4.88Q67.74-3.76 68.98-3.33 70.21-2.91 71.6-2.91L71.6-2.91Q73.02-2.91 74.27-3.33 75.53-3.76 76.48-4.88L76.48-4.88Q77.44-5.98 77.99-7.87 78.54-9.77 78.54-12.7L78.54-12.7Q78.54-15.65 77.99-17.53 77.44-19.41 76.48-20.53L76.48-20.53Q75.53-21.63 74.27-22.07 73.02-22.51 71.6-22.51ZM91.57-25.39L91.57-31.2 95.77-31.2 95.77-25.39 104.31-25.39 104.31-21.85 95.77-21.85 95.77-7.28Q95.77-5.81 95.85-5.04 95.94-4.27 96.28-3.83L96.28-3.83Q96.92-2.95 98.85-2.95L98.85-2.95Q99.92-2.95 100.92-3.17L100.92-3.17Q101.95-3.39 102.8-3.66L102.8-3.66Q103.48-2.17 104.05-0.39L104.05-0.39Q101.16 0.59 98.23 0.59L98.23 0.59Q96.11 0.59 94.83 0.11 93.55-0.37 92.81-1.44L92.81-1.44Q92.06-2.56 91.81-4.13 91.57-5.69 91.57-8.45L91.57-8.45 91.57-21.85 87.91-21.85 87.91-25.39 91.57-25.39ZM119.79-25.95L119.79-25.95Q120.99-25.95 122.28-25.77 123.57-25.59 124.82-25.07L124.82-25.07Q126.06-24.54 127.18-23.62 128.29-22.71 129.14-21.24L129.14-21.24Q129.99-19.75 130.48-17.66 130.97-15.58 130.97-12.7L130.97-12.7Q130.97-9.81 130.48-7.73 129.99-5.64 129.14-4.17L129.14-4.17Q128.29-2.69 127.18-1.76 126.06-0.83 124.82-0.32L124.82-0.32Q123.57 0.22 122.28 0.4 120.99 0.59 119.79 0.59L119.79 0.59Q118.62 0.59 117.34 0.4 116.05 0.22 114.81-0.32L114.81-0.32Q113.56-0.83 112.47-1.76 111.37-2.69 110.51-4.17L110.51-4.17Q109.66-5.64 109.17-7.73 108.68-9.81 108.68-12.7L108.68-12.7Q108.68-15.58 109.17-17.66 109.66-19.75 110.51-21.24L110.51-21.24Q111.37-22.71 112.47-23.62 113.56-24.54 114.81-25.07L114.81-25.07Q116.05-25.59 117.32-25.77 118.59-25.95 119.79-25.95ZM119.79-22.51L119.79-22.51Q118.4-22.51 117.17-22.07 115.93-21.63 115-20.53L115-20.53Q114.05-19.41 113.49-17.53 112.93-15.65 112.93-12.7L112.93-12.7Q112.93-9.77 113.49-7.87 114.05-5.98 115-4.88L115-4.88Q115.93-3.76 117.17-3.33 118.4-2.91 119.79-2.91L119.79-2.91Q121.21-2.91 122.46-3.33 123.72-3.76 124.67-4.88L124.67-4.88Q125.62-5.98 126.17-7.87 126.72-9.77 126.72-12.7L126.72-12.7Q126.72-15.65 126.17-17.53 125.62-19.41 124.67-20.53L124.67-20.53Q123.72-21.63 122.46-22.07 121.21-22.51 119.79-22.51ZM166.34 0L161.68 0 157.07-11.94 143.18-11.94 138.56 0 133.9 0 147.81-35.11 152.43-35.11 166.34 0ZM150.11-29.98L144.62-15.7 155.63-15.7 150.11-29.98ZM174.45-35.11L174.45-9.86Q174.45-7.86 174.5-6.51 174.55-5.15 174.62-4.13L174.62-4.13Q174.69-3.1 174.85-2.27 175.01-1.44 175.25-0.44L175.25-0.44Q174.23-0.17 173.2 0.06 172.18 0.29 171.15 0.46L171.15 0.46Q170.66-1.12 170.46-2.44 170.25-3.76 170.25-5.03L170.25-5.03 170.25-35.11 174.45-35.11ZM182.72-0.2L182.72-35.16 186.92-35.16 186.92-20.53 187.43-20.48Q188.58-23.02 190.14-24.34L190.14-24.34Q191.95-25.95 194.51-25.95L194.51-25.95Q198.98-25.95 201.35-22.19L201.35-22.19Q203.47-18.7 203.47-13.18L203.47-13.18Q203.47-6.47 200.28-2.83L200.28-2.83Q197.22 0.59 191.24 0.59L191.24 0.59Q187.97 0.59 182.72-0.2L182.72-0.2ZM186.68-14.99L186.68-14.99 186.68-3.47Q188.92-3 191.24-3L191.24-3Q195.2-3 197.17-5.32L197.17-5.32Q199.23-7.71 199.23-12.43L199.23-12.43Q199.23-16.7 198.3-19.02L198.3-19.02Q197.08-22.07 194.15-22.07L194.15-22.07Q191.58-22.07 189.63-19.92L189.63-19.92Q188.26-18.46 186.68-14.99ZM230.5-0.44L230.5-0.44 226.44 0.46Q225.98-1 225.79-2.37L225.79-2.37Q225.69-3 225.54-4.96L225.54-4.96 225.03-4.96Q223.69-2.49 221.71-1.03L221.71-1.03Q219.54 0.59 217.12 0.59L217.12 0.59Q213.48 0.59 211.58-1.17L211.58-1.17Q209.94-2.66 209.31-5.74L209.31-5.74Q208.89-7.84 208.89-11.99L208.89-11.99 208.89-25.39 213.09-25.39 213.09-10.82Q213.09-7.18 213.8-5.62L213.8-5.62Q214.85-3.3 218.02-3.3L218.02-3.3Q220.27-3.3 222.42-5.44L222.42-5.44Q223.86-6.88 225.49-9.67L225.49-9.67 225.49-25.39 229.69-25.39 229.69-9.72Q229.69-6.47 229.86-4.08L229.86-4.08Q229.96-2.59 230.5-0.44ZM241.97 0L237.77 0 237.77-15.7Q237.77-19.46 237.6-21.36L237.6-21.36Q237.5-22.85 236.96-25L236.96-25 240.97-25.9Q241.43-24.44 241.63-23.07L241.63-23.07Q241.73-22.56 241.87-20.41L241.87-20.41 242.38-20.41Q243.63-22.9 245.51-24.32L245.51-24.32Q247.54-25.95 250.12-25.95L250.12-25.95Q251.59-25.95 252.96-25.43 254.32-24.9 255.25-23.95L255.25-23.95Q256.64-22.58 257.23-19.9L257.23-19.9 257.52-19.9Q258.99-22.73 260.96-24.24L260.96-24.24Q263.09-25.95 265.72-25.95L265.72-25.95Q268.92-25.95 270.63-24.17L270.63-24.17Q272.12-22.68 272.73-19.63L272.73-19.63Q273.17-17.41 273.17-13.43L273.17-13.43 273.17 0 268.97 0 268.97-14.6Q268.97-16.53 268.75-17.77L268.75-17.77Q268.41-19.7 267.53-20.78L267.53-20.78Q266.43-22.07 264.46-22.07L264.46-22.07Q262.21-22.07 260.3-19.92L260.3-19.92Q259.16-18.63 257.57-15.92L257.57-15.92Q257.62-15.5 257.62-14.7L257.62-14.7 257.62 0 253.42 0 253.42-14.6Q253.42-17.7 252.81-19.36L252.81-19.36Q251.78-22.07 248.93-22.07L248.93-22.07Q246.73-22.07 244.75-19.87L244.75-19.87Q243.61-18.6 241.97-15.65L241.97-15.65 241.97 0Z" opacity="1" transform="matrix(1,0,0,1,0,0)" fill="#55279f" class="wordmark-text-0" data-fill-palette-color="primary" id="text-0"></path></svg></g></svg></g></svg></g></svg></g><g transform="matrix(1,0,0,1,407.9414220097483,0)"><svg viewBox="0 0 72.71558827442072 72.71558827442072" height="72.71558827442072" width="72.71558827442072"><g><svg xmlns="http://www.w3.org/2000/svg" xmlns:xlink="http://www.w3.org/1999/xlink" version="1.1" x="0" y="0" viewBox="15 15 49 49" enable-background="new 0 0 80 80" xml:space="preserve" height="72.71558827442072" width="72.71558827442072" class="icon-icon-0" data-fill-palette-color="accent" id="icon-0"><g fill="#9f057b" data-fill-palette-color="accent"><path fill="#9f057b" d="M64 52H15V15H64zM17 50H62V17H17z" data-fill-palette-color="accent"></path></g><g fill="#9f057b" data-fill-palette-color="accent"><path fill="#9f057b" d="M48.8 43H30.2C29.4 43 28.7 42.6 28.4 41.8 28.1 41.1 28.2 40.3 28.7 39.7L32.3 35.6C33 34.8 34.4 34.7 35.2 35.5L36.9 37.2 37 37.1 41.6 32.5C42.4 31.5 44 31.6 44.7 32.6L50.3 39.8C50.8 40.4 50.8 41.2 50.5 41.9S49.5 43 48.8 43M33.8 36.9L30.2 41H48.8L43.2 33.8 43.1 33.9 38.5 38.5C37.8 39.4 36.4 39.4 35.6 38.6z" data-fill-palette-color="accent"></path></g><g fill="#9f057b" data-fill-palette-color="accent"><path fill="#9f057b" d="M33 32C30.8 32 29 30.2 29 28S30.8 24 33 24 37 25.8 37 28 35.2 32 33 32M33 26C31.9 26 31 26.9 31 28S31.9 30 33 30 35 29.1 35 28 34.1 26 33 26" data-fill-palette-color="accent"></path></g><g fill="#9f057b" data-fill-palette-color="accent"><path fill="#9f057b" d="M28 64C25.8 64 24 62.2 24 60S25.8 56 28 56 32 57.8 32 60 30.2 64 28 64M28 58C26.9 58 26 58.9 26 60S26.9 62 28 62 30 61.1 30 60 29.1 58 28 58" data-fill-palette-color="accent"></path></g><g fill="#9f057b" data-fill-palette-color="accent"><path fill="#9f057b" d="M50 64C47.8 64 46 62.2 46 60S47.8 56 50 56 54 57.8 54 60 52.2 64 50 64M50 58C48.9 58 48 58.9 48 60S48.9 62 50 62 52 61.1 52 60 51.1 58 50 58" data-fill-palette-color="accent"></path></g><g fill="#9f057b" data-fill-palette-color="accent"><circle fill="#9f057b" cx="39" cy="60" r="4.0" data-fill-palette-color="accent"></circle></g></svg></g></svg></g></svg></g><defs></defs></svg><rect width="395.52" height="59.835743282502875" fill="none" stroke="none" visibility="hidden"></rect></g></svg></g></svg>